<svg xmlns="http://www.w3.org/2000/svg" xmlns:xlink="http://www.w3.org/1999/xlink" width="500" zoomAndPan="magnify" viewBox="0 0 375 374.999991" height="500" preserveAspectRatio="xMidYMid meet" version="1.0"><defs><clipPath id="2502f5dc99"><path d="M 158.710938 156.84375 L 313.210938 156.84375 L 313.210938 311.34375 L 158.710938 311.34375 Z M 158.710938 156.84375 " clip-rule="nonzero"/></clipPath><clipPath id="f91f3127bc"><path d="M 61.917969 156.84375 L 216.289062 156.84375 L 216.289062 311.34375 L 61.917969 311.34375 Z M 61.917969 156.84375 " clip-rule="nonzero"/></clipPath><clipPath id="df02191883"><path d="M 135 63 L 240 63 L 240 137 L 135 137 Z M 135 63 " clip-rule="nonzero"/></clipPath><clipPath id="38ae371743"><path d="M 187.496094 63.785156 L 239.464844 115.757812 L 187.496094 167.730469 L 135.523438 115.757812 Z M 187.496094 63.785156 " clip-rule="nonzero"/></clipPath><clipPath id="dc5e48014c"><path d="M 187.496094 167.300781 L 135.523438 115.328125 L 187.496094 63.355469 L 239.464844 115.328125 Z M 187.496094 167.300781 " clip-rule="nonzero"/></clipPath></defs><g clip-path="url(#2502f5dc99)"><path fill="#ffbd59" d="M 313.082031 225.585938 L 313.082031 156.84375 C 227.824219 156.84375 158.710938 225.957031 158.710938 311.214844 L 227.453125 311.214844 C 227.453125 263.921875 265.789062 225.585938 313.082031 225.585938 Z M 313.082031 225.585938 " fill-opacity="1" fill-rule="nonzero"/></g><g clip-path="url(#f91f3127bc)"><path fill="#ff914d" d="M 61.917969 225.585938 L 61.917969 156.84375 C 147.171875 156.84375 216.289062 225.957031 216.289062 311.214844 L 147.546875 311.214844 C 147.546875 263.921875 109.207031 225.585938 61.917969 225.585938 Z M 61.917969 225.585938 " fill-opacity="1" fill-rule="nonzero"/></g><g clip-path="url(#df02191883)"><g clip-path="url(#38ae371743)"><g clip-path="url(#dc5e48014c)"><path fill="#ffde59" d="M 135.738281 115.542969 C 164.320312 144.125 210.667969 144.125 239.25 115.542969 L 187.492188 63.785156 Z M 135.738281 115.542969 " fill-opacity="1" fill-rule="nonzero"/></g></g></g></svg>